<?xml version="1.0" encoding="UTF-8" standalone="no"?><svg xmlns="http://www.w3.org/2000/svg" xmlns:xlink="http://www.w3.org/1999/xlink" contentStyleType="text/css" height="711px" preserveAspectRatio="none" style="width:1620px;height:711px;background:#FFFFFF;" version="1.1" viewBox="0 0 1620 711" width="1620px" zoomAndPan="magnify"><defs/><g><!--MD5=[a548eb91f6cd2f90ce7e62ad2a06e00a]
cluster genss--><g id="cluster_genss"><path d="M671.5,17 L955.5,17 A12.5,12.5 0 0 1 968,29.5 L968,43.2969 L659,43.2969 L659,29.5 A12.5,12.5 0 0 1 671.5,17 " fill="#F1F1F1" style="stroke:#F1F1F1;stroke-width:1.0;"/><rect height="688" rx="12.5" ry="12.5" style="stroke:#181818;stroke-width:0.5;fill:none;" width="309" x="659" y="17"/><line style="stroke:#181818;stroke-width:0.5;fill:none;" x1="659" x2="968" y1="43.2969" y2="43.2969"/><text fill="#000000" font-family="sans-serif" font-size="14" lengthAdjust="spacing" textLength="174" x="726.5" y="33.9951">General simulation state</text></g><!--MD5=[7d0db6c6844d7232aee7d6368cb84902]
cluster Creature--><g id="cluster_Creature"><path d="M19.5,145 L505.5,145 A12.5,12.5 0 0 1 518,157.5 L518,171.2969 L7,171.2969 L7,157.5 A12.5,12.5 0 0 1 19.5,145 " fill="#F1F1F1" style="stroke:#F1F1F1;stroke-width:1.0;"/><rect height="329" rx="12.5" ry="12.5" style="stroke:#181818;stroke-width:0.5;fill:none;" width="511" x="7" y="145"/><line style="stroke:#181818;stroke-width:0.5;fill:none;" x1="7" x2="518" y1="171.2969" y2="171.2969"/><text fill="#000000" font-family="sans-serif" font-size="14" lengthAdjust="spacing" textLength="63" x="231" y="161.9951">Creature</text></g><!--MD5=[7a5e552c393eb3b8c3a9b05371b3201b]
cluster Human--><g id="cluster_Human"><path d="M1033.5,7 L1456.5,7 A12.5,12.5 0 0 1 1469,19.5 L1469,33.2969 L1021,33.2969 L1021,19.5 A12.5,12.5 0 0 1 1033.5,7 " fill="#F1F1F1" style="stroke:#F1F1F1;stroke-width:1.0;"/><rect height="467" rx="12.5" ry="12.5" style="stroke:#181818;stroke-width:0.5;fill:none;" width="448" x="1021" y="7"/><line style="stroke:#181818;stroke-width:0.5;fill:none;" x1="1021" x2="1469" y1="33.2969" y2="33.2969"/><text fill="#000000" font-family="sans-serif" font-size="14" lengthAdjust="spacing" textLength="128" x="1181" y="23.9951">Human : Creature</text></g><g id="elem_nexttick"><polygon fill="#F1F1F1" points="762,436,774,448,762,460,750,448,762,436" style="stroke:#181818;stroke-width:0.5;"/></g><ellipse cx="737" cy="62" fill="#222222" rx="10" ry="10" style="stroke:none;stroke-width:1.0;"/><rect fill="#F1F1F1" height="40" rx="12.5" ry="12.5" style="stroke:#181818;stroke-width:0.5;" width="50" x="712" y="172"/><text fill="#000000" font-family="sans-serif" font-size="14" lengthAdjust="spacing" textLength="26" x="724" y="196.8467">Idle</text><rect fill="#F1F1F1" height="40" rx="12.5" ry="12.5" style="stroke:#181818;stroke-width:0.5;" width="69" x="702.5" y="304"/><text fill="#000000" font-family="sans-serif" font-size="14" lengthAdjust="spacing" textLength="59" x="707.5" y="328.8467">Running</text><rect fill="#F1F1F1" height="40" rx="12.5" ry="12.5" style="stroke:#181818;stroke-width:0.5;" width="79" x="722.5" y="552"/><text fill="#000000" font-family="sans-serif" font-size="14" lengthAdjust="spacing" textLength="69" x="727.5" y="576.8467">Complete</text><ellipse cx="762" cy="679" fill="none" rx="10" ry="10" style="stroke:#222222;stroke-width:1.0;"/><ellipse cx="762.5" cy="679.5" fill="#222222" rx="6" ry="6" style="stroke:none;stroke-width:1.0;"/><g id="elem_attacked"><polygon fill="#F1F1F1" points="253,180,265,192,253,204,241,192,253,180" style="stroke:#181818;stroke-width:0.5;"/></g><rect fill="#F1F1F1" height="40" rx="12.5" ry="12.5" style="stroke:#181818;stroke-width:0.5;" width="50" x="367" y="304"/><text fill="#000000" font-family="sans-serif" font-size="14" lengthAdjust="spacing" textLength="35" x="374.5" y="328.8467">Alive</text><rect fill="#F1F1F1" height="40" rx="12.5" ry="12.5" style="stroke:#181818;stroke-width:0.5;" width="50" x="33" y="304"/><text fill="#000000" font-family="sans-serif" font-size="14" lengthAdjust="spacing" textLength="38" x="39" y="328.8467">Dead</text><ellipse cx="58" cy="448" fill="none" rx="10" ry="10" style="stroke:#222222;stroke-width:1.0;"/><ellipse cx="58.5" cy="448.5" fill="#222222" rx="6" ry="6" style="stroke:none;stroke-width:1.0;"/><rect fill="#F1F1F1" height="40" rx="12.5" ry="12.5" style="stroke:#181818;stroke-width:0.5;" width="109" x="1293.5" y="42"/><text fill="#000000" font-family="sans-serif" font-size="14" lengthAdjust="spacing" textLength="99" x="1298.5" y="66.8467">On expedition</text><rect fill="#F1F1F1" height="40" rx="12.5" ry="12.5" style="stroke:#181818;stroke-width:0.5;" width="135" x="1037.5" y="304"/><text fill="#000000" font-family="sans-serif" font-size="14" lengthAdjust="spacing" textLength="125" x="1042.5" y="328.8467">Not on expedition</text><g id="elem_contexp"><polygon fill="#F1F1F1" points="1079,180,1091,192,1079,204,1067,192,1079,180" style="stroke:#181818;stroke-width:0.5;"/></g><ellipse cx="1299" cy="448" fill="none" rx="10" ry="10" style="stroke:#222222;stroke-width:1.0;"/><ellipse cx="1299.5" cy="448.5" fill="#222222" rx="6" ry="6" style="stroke:none;stroke-width:1.0;"/><!--MD5=[4c68b4596e181b549ed4542775187fa4]
link *start*genss to Idle--><g id="link_*start*genss_Idle"><path d="M737,72.21 C737,91.74 737,137.9 737,166.59 " fill="none" id="*start*genss-to-Idle" style="stroke:#181818;stroke-width:1.0;"/><polygon fill="#181818" points="737,171.73,741,162.73,737,166.73,733,162.73,737,171.73" style="stroke:#181818;stroke-width:1.0;"/><text fill="#000000" font-family="sans-serif" font-size="13" lengthAdjust="spacing" textLength="185" x="738" y="125.0669">GUI::startSimulation() called</text></g><!--MD5=[3417694be1da1206b2440866876cc429]
link Idle to Running--><g id="link_Idle_Running"><path d="M735.56,212.07 C734.95,221.13 734.3,232.12 734,242 C733.57,256.22 733.57,259.78 734,274 C734.25,282.03 734.72,290.79 735.21,298.65 " fill="none" id="Idle-to-Running" style="stroke:#181818;stroke-width:1.0;"/><polygon fill="#181818" points="735.56,303.93,738.9595,294.6864,735.2312,298.9408,730.9768,295.2125,735.56,303.93" style="stroke:#181818;stroke-width:1.0;"/><text fill="#000000" font-family="sans-serif" font-size="13" lengthAdjust="spacing" textLength="75" x="754.5" y="255.0669">Map and all</text><text fill="#000000" font-family="sans-serif" font-size="13" lengthAdjust="spacing" textLength="114" x="735" y="270.1997">creatures created</text></g><!--MD5=[c1e5afa836970cdf8db3a0df386a6a03]
link Running to nexttick--><g id="link_Running_nexttick"><path d="M771.61,340.3 C785.23,348.24 799.4,359.39 807,374 C813.57,386.61 812.75,392.99 807,406 C800.2,421.4 784.45,433.5 773.51,440.46 " fill="none" id="Running-to-nexttick" style="stroke:#181818;stroke-width:1.0;"/><polygon fill="#181818" points="769.16,443.11,778.9245,441.8235,773.4246,440.4999,774.7483,435,769.16,443.11" style="stroke:#181818;stroke-width:1.0;"/><text fill="#000000" font-family="sans-serif" font-size="13" lengthAdjust="spacing" textLength="104" x="813" y="387.0669">Next simulation</text><text fill="#000000" font-family="sans-serif" font-size="13" lengthAdjust="spacing" textLength="93" x="818.5" y="402.1997">tick requested</text></g><!--MD5=[e8ec958bca60e937f9d2086a22f8891e]
link nexttick to Running--><g id="link_nexttick_Running"><path d="M753.59,444.09 C740.02,438.89 713.75,426.56 703,406 C693.1,387.06 704.22,364.59 716.32,348.12 " fill="none" id="nexttick-to-Running" style="stroke:#181818;stroke-width:1.0;"/><polygon fill="#181818" points="719.41,344.07,710.7718,348.801,716.3781,348.0458,717.1332,353.6521,719.41,344.07" style="stroke:#181818;stroke-width:1.0;"/><text fill="#000000" font-family="sans-serif" font-size="13" lengthAdjust="spacing" textLength="94" x="704" y="387.0669">No team owns</text><text fill="#000000" font-family="sans-serif" font-size="13" lengthAdjust="spacing" textLength="71" x="715.5" y="402.1997">all villages</text></g><!--MD5=[b5e30f0369af8f1647030ed7595204d4]
link nexttick to Complete--><g id="link_nexttick_Complete"><path d="M762,460.26 C762,479.84 762,520.56 762,546.79 " fill="none" id="nexttick-to-Complete" style="stroke:#181818;stroke-width:1.0;"/><polygon fill="#181818" points="762,551.84,766,542.84,762,546.84,758,542.84,762,551.84" style="stroke:#181818;stroke-width:1.0;"/><text fill="#000000" font-family="sans-serif" font-size="13" lengthAdjust="spacing" textLength="72" x="790.5" y="503.0669">All villages</text><text fill="#000000" font-family="sans-serif" font-size="13" lengthAdjust="spacing" textLength="127" x="763" y="518.1997">belong to one team</text></g><!--MD5=[9794a56b32efa874e8797714c456b4aa]
link Complete to *end*genss--><g id="link_Complete_*end*genss"><path d="M762,592.26 C762,612.86 762,645.07 762,663.59 " fill="none" id="Complete-to-*end*genss" style="stroke:#181818;stroke-width:1.0;"/><polygon fill="#181818" points="762,668.87,766,659.87,762,663.87,758,659.87,762,668.87" style="stroke:#181818;stroke-width:1.0;"/><text fill="#000000" font-family="sans-serif" font-size="13" lengthAdjust="spacing" textLength="140" x="763" y="635.0669">Map object destroyed</text></g><!--MD5=[19b003e1b0471955b9d44febfde4ee72]
link Idle to Alive--><g id="link_Idle_Alive"><path d="M711.9,199.25 C679.08,207.69 620.01,223.78 571,242 C517.15,262.02 456.67,290.76 421.6,308.08 " fill="none" id="Idle-to-Alive" style="stroke:#181818;stroke-width:1.0;"/><polygon fill="#181818" points="417.03,310.34,426.8693,309.9054,421.505,308.1097,423.3007,302.7454,417.03,310.34" style="stroke:#181818;stroke-width:1.0;"/><text fill="#000000" font-family="sans-serif" font-size="13" lengthAdjust="spacing" textLength="153" x="572" y="262.5669">Creature object created</text></g><!--MD5=[679da5f49153b085adddc99226ab17df]
link Alive to attacked--><g id="link_Alive_attacked"><path d="M386.76,303.83 C381.02,285.91 370.27,259.39 353,242 C328.13,216.96 287.89,202.72 266.84,196.6 " fill="none" id="Alive-to-attacked" style="stroke:#181818;stroke-width:1.0;"/><polygon fill="#181818" points="261.92,195.22,269.4971,201.5119,266.7324,196.5766,271.6677,193.812,261.92,195.22" style="stroke:#181818;stroke-width:1.0;"/><text fill="#000000" font-family="sans-serif" font-size="13" lengthAdjust="spacing" textLength="78" x="390" y="255.0669">Attacked by</text><text fill="#000000" font-family="sans-serif" font-size="13" lengthAdjust="spacing" textLength="108" x="375" y="270.1997">another creature</text></g><!--MD5=[5b6425db774ea25a733662429e87d319]
link attacked to Alive--><g id="link_attacked_Alive"><path d="M249.36,200.56 C242.53,215.99 229.85,251.54 246,274 C272.23,310.47 326.92,320.17 361.41,322.54 " fill="none" id="attacked-to-Alive" style="stroke:#181818;stroke-width:1.0;"/><polygon fill="#181818" points="366.76,322.86,358.0157,318.3282,361.769,322.5605,357.5366,326.3138,366.76,322.86" style="stroke:#181818;stroke-width:1.0;"/><text fill="#000000" font-family="sans-serif" font-size="13" lengthAdjust="spacing" textLength="97" x="247" y="262.5669">Positive health</text></g><!--MD5=[a8941dd86b05d50b69ec11d57b15f9a3]
link attacked to Dead--><g id="link_attacked_Dead"><path d="M241.02,192.44 C209.13,191.64 121.46,194.15 76,242 C61.79,256.96 57.85,280.52 57.13,298.39 " fill="none" id="attacked-to-Dead" style="stroke:#181818;stroke-width:1.0;"/><polygon fill="#181818" points="57,303.73,61.23,294.8358,57.1285,298.7317,53.2327,294.6302,57,303.73" style="stroke:#181818;stroke-width:1.0;"/><text fill="#000000" font-family="sans-serif" font-size="13" lengthAdjust="spacing" textLength="153" x="77" y="262.5669">Zero or negative health</text></g><!--MD5=[3b606af85da858d978363338c9ea70f0]
link Dead to *end*Creature--><g id="link_Dead_*end*Creature"><path d="M58,344.06 C58,368.65 58,410.86 58,432.81 " fill="none" id="Dead-to-*end*Creature" style="stroke:#181818;stroke-width:1.0;"/><polygon fill="#181818" points="58,437.93,62,428.93,58,432.93,54,428.93,58,437.93" style="stroke:#181818;stroke-width:1.0;"/><text fill="#000000" font-family="sans-serif" font-size="13" lengthAdjust="spacing" textLength="188" x="59" y="387.0669">Creature object deleted from</text><text fill="#000000" font-family="sans-serif" font-size="13" lengthAdjust="spacing" textLength="142" x="82" y="402.1997">the list and destroyed</text></g><!--MD5=[eb6fdd2f2e9d64802ea22e15d034d30b]
link Idle to nonexp--><g id="link_Idle_nonexp"><path d="M762.32,203.03 C786.16,212.61 822.78,227.67 854,242 C882.91,255.26 888.24,262.8 918,274 C954.82,287.86 997.14,299.3 1032.19,307.63 " fill="none" id="Idle-to-nonexp" style="stroke:#181818;stroke-width:1.0;"/><polygon fill="#181818" points="1037.31,308.84,1029.4654,302.885,1032.4429,307.6948,1027.6331,310.6723,1037.31,308.84" style="stroke:#181818;stroke-width:1.0;"/><text fill="#000000" font-family="sans-serif" font-size="13" lengthAdjust="spacing" textLength="144" x="919" y="262.5669">Human object created</text></g><!--MD5=[5f26b639032a64d3a50ca8b97b253ffe]
link nonexp to nonexp--><g id="link_nonexp_nonexp"><path d="M1172.53,311.66 C1192.23,312.09 1207.5,316.2 1207.5,324 C1207.5,331.07 1194.96,335.11 1177.94,336.12 " fill="none" id="nonexp-to-nonexp" style="stroke:#181818;stroke-width:1.0;"/><polygon fill="#181818" points="1172.53,336.34,1181.6827,339.9771,1177.526,336.1402,1181.3629,331.9835,1172.53,336.34" style="stroke:#181818;stroke-width:1.0;"/><text fill="#000000" font-family="sans-serif" font-size="13" lengthAdjust="spacing" textLength="155" x="1213.5" y="328.5669">Did not return to village</text></g><!--MD5=[d80706f04d1d6e7ecac8c4d157ca2ebb]
link nonexp to onexp--><g id="link_nonexp_onexp"><path d="M1172.78,306.74 C1191.47,299.4 1210.34,288.91 1224,274 C1234.06,263.01 1228.78,255.96 1234,242 C1251.85,194.28 1238.08,165.95 1280,137 C1294.37,127.07 1424.97,141.66 1437,129 C1453.47,111.67 1432.98,95.62 1407.53,83.68 " fill="none" id="nonexp-to-onexp" style="stroke:#181818;stroke-width:1.0;"/><polygon fill="#181818" points="1402.73,81.5,1409.2872,88.8487,1407.2872,83.5572,1412.5787,81.5571,1402.73,81.5" style="stroke:#181818;stroke-width:1.0;"/><text fill="#000000" font-family="sans-serif" font-size="13" lengthAdjust="spacing" textLength="152" x="1281.5" y="189.0669">Returned to village and</text><text fill="#000000" font-family="sans-serif" font-size="13" lengthAdjust="spacing" textLength="153" x="1281" y="204.1997">deposited his inventory</text></g><!--MD5=[4071da07b3c164aa2915802b07e8e467]
link onexp to contexp--><g id="link_onexp_contexp"><path d="M1328.9,82.08 C1312.22,97.5 1286.58,118.32 1260,129 C1232.58,140.02 1222.4,128.84 1194,137 C1153.96,148.5 1110.41,172.42 1090.32,184.18 " fill="none" id="onexp-to-contexp" style="stroke:#181818;stroke-width:1.0;"/><polygon fill="#181818" points="1085.95,186.76,1095.7329,185.6219,1090.2538,184.2149,1091.6607,178.7358,1085.95,186.76" style="stroke:#181818;stroke-width:1.0;"/><text fill="#000000" font-family="sans-serif" font-size="13" lengthAdjust="spacing" textLength="138" x="1290" y="125.0669">Continues expedition</text></g><!--MD5=[2785e487903e164f342adaa262dcd364]
link contexp to onexp--><g id="link_contexp_onexp"><path d="M1074.43,183.92 C1065.33,168.82 1047.24,133.1 1065,112 C1092.95,78.8 1213.74,68.09 1288.19,64.64 " fill="none" id="contexp-to-onexp" style="stroke:#181818;stroke-width:1.0;"/><polygon fill="#181818" points="1293.46,64.41,1284.2867,60.8252,1288.4652,64.6383,1284.6521,68.8168,1293.46,64.41" style="stroke:#181818;stroke-width:1.0;"/><text fill="#000000" font-family="sans-serif" font-size="13" lengthAdjust="spacing" textLength="185" x="1066" y="125.0669">Space available in inventory</text></g><!--MD5=[f78c2125d45260a4a4f8aa6a94668382]
link contexp to nonexp--><g id="link_contexp_nonexp"><path d="M1076.9,202.19 C1073.8,217.43 1069.09,248.75 1076,274 C1078.38,282.69 1082.73,291.39 1087.36,299.01 " fill="none" id="contexp-to-nonexp" style="stroke:#181818;stroke-width:1.0;"/><polygon fill="#181818" points="1090.26,303.6,1088.8348,293.8548,1087.5895,299.3729,1082.0714,298.1276,1090.26,303.6" style="stroke:#181818;stroke-width:1.0;"/><text fill="#000000" font-family="sans-serif" font-size="13" lengthAdjust="spacing" textLength="142" x="1077" y="262.5669">No space in inventory</text></g><!--MD5=[c700a76c5e8410f7a7dc45536e1a4178]
link onexp to *end*Human--><g id="link_onexp_*end*Human"><path d="M1402.74,77.48 C1419.91,84.89 1436.99,95.87 1447,112 C1454.08,123.4 1462.32,93.15 1439,212 C1436.32,225.66 1433.69,228.58 1430,242 C1410.09,314.45 1437.06,348.25 1389,406 C1369.54,429.38 1333.91,440.04 1313.81,444.38 " fill="none" id="onexp-to-*end*Human" style="stroke:#181818;stroke-width:1.0;"/><polygon fill="#181818" points="1308.82,445.4,1318.4381,447.5196,1313.719,444.4002,1316.8384,439.6811,1308.82,445.4" style="stroke:#181818;stroke-width:1.0;"/><text fill="#000000" font-family="sans-serif" font-size="13" lengthAdjust="spacing" textLength="113" x="1465" y="255.0669">Dies (see Creture</text><text fill="#000000" font-family="sans-serif" font-size="13" lengthAdjust="spacing" textLength="181" x="1431" y="270.1997">state diagram for life cycle)</text></g><!--MD5=[587ad4c06e95c5c41e81d1e738c9377c]
link nonexp to *end*Human--><g id="link_nonexp_*end*Human"><path d="M1124.47,344.26 C1143.15,362 1172.78,388.17 1202,406 C1229.53,422.8 1265.18,435.92 1284.69,442.45 " fill="none" id="nonexp-to-*end*Human" style="stroke:#181818;stroke-width:1.0;"/><polygon fill="#181818" points="1289.74,444.11,1282.4488,437.4889,1284.9923,442.5417,1279.9395,445.0852,1289.74,444.11" style="stroke:#181818;stroke-width:1.0;"/><text fill="#000000" font-family="sans-serif" font-size="13" lengthAdjust="spacing" textLength="113" x="1237" y="387.0669">Dies (see Creture</text><text fill="#000000" font-family="sans-serif" font-size="13" lengthAdjust="spacing" textLength="181" x="1203" y="402.1997">state diagram for life cycle)</text></g><!--MD5=[eb541d3274c3426bf88a356cda157bcd]
@startuml
hide empty description
state "General simulation state" as genss {
    state nexttick <<choice>>
    [*] - -> Idle: GUI::startSimulation() called
    Idle - -> Running: Map and all\ncreatures created
    Running -> nexttick: Next simulation\ntick requested
    nexttick - -> Running: No team owns\nall villages
    nexttick - -> Complete: All villages\nbelong to one team
    Complete - -> [*]: Map object destroyed
}

state Creature {
    state attacked <<choice>>
    Idle - -> Alive: Creature object created
    Alive - -> attacked: Attacked by\nanother creature
    attacked - -> Alive: Positive health
    attacked - -> Dead: Zero or negative health
    Dead - -> [*]: Creature object deleted from\nthe list and destroyed
}

state "Human : Creature" as Human {
    state "On expedition" as onexp
    state "Not on expedition" as nonexp
    state contexp <<choice>>
    Idle - -> nonexp: Human object created
    nonexp - -> nonexp: Did not return to village
    nonexp - -> onexp: Returned to village and\ndeposited his inventory
    onexp - -> contexp: Continues expedition
    contexp - -> onexp: Space available in inventory
    contexp - -> nonexp: No space in inventory
    onexp - -> [*]: Dies (see Creture\nstate diagram for life cycle)
    nonexp - -> [*]: Dies (see Creture\nstate diagram for life cycle)
}
@enduml

PlantUML version 1.2022.5(Sat Apr 30 12:55:52 CEST 2022)
(GPL source distribution)
Java Runtime: OpenJDK Runtime Environment
JVM: OpenJDK 64-Bit Server VM
Default Encoding: UTF-8
Language: pl
Country: PL
--></g></svg>